<svg width="24" height="24" viewBox="0 0 24 24" fill="none" xmlns="http://www.w3.org/2000/svg">
<path fill-rule="evenodd" clip-rule="evenodd" d="M5.25 7.25H7.18934L9 5.43934C9.2813 5.15804 9.66284 5 10.0607 5H13.9393C14.3372 5 14.7187 5.15804 15 5.43934L16.8107 7.25H18.75C19.9926 7.25 21 8.25736 21 9.5V16.25C21 17.4926 19.9926 18.5 18.75 18.5H5.25C4.00736 18.5 3 17.4926 3 16.25V9.5C3 8.25736 4.00736 7.25 5.25 7.25ZM5.25 8.75C4.83579 8.75 4.5 9.08579 4.5 9.5V16.25C4.5 16.6642 4.83579 17 5.25 17H18.75C19.1642 17 19.5 16.6642 19.5 16.25V9.5C19.5 9.08579 19.1642 8.75 18.75 8.75H16.8107C16.4128 8.75 16.0313 8.59196 15.75 8.31066L13.9393 6.5H10.0607L8.25 8.31066C7.9687 8.59196 7.58716 8.75 7.18934 8.75H5.25ZM12 16.25C9.92893 16.25 8.25 14.5711 8.25 12.5C8.25 10.4289 9.92893 8.75 12 8.75C14.0711 8.75 15.75 10.4289 15.75 12.5C15.75 14.5711 14.0711 16.25 12 16.25ZM12 14.75C13.2426 14.75 14.25 13.7426 14.25 12.5C14.25 11.2574 13.2426 10.25 12 10.25C10.7574 10.25 9.75 11.2574 9.75 12.5C9.75 13.7426 10.7574 14.75 12 14.75Z" fill="#EDE6DB"/>
</svg>
