<svg width="24" height="24" viewBox="0 0 24 24" fill="none" xmlns="http://www.w3.org/2000/svg">
<path fill-rule="evenodd" clip-rule="evenodd" d="M7 18C7 18.3682 7.29848 18.6667 7.66667 18.6667H15.6667C16.0349 18.6667 16.3333 18.3682 16.3333 18V10H7V18ZM15 6H16.3333C17.4379 6 18.3333 6.89543 18.3333 8V9.33333C18.3333 9.70152 18.0349 10 17.6667 10V18C17.6667 19.1046 16.7712 20 15.6667 20H7.66667C6.5621 20 5.66667 19.1046 5.66667 18V10C5.29848 10 5 9.70152 5 9.33333V8C5 6.89543 5.89543 6 7 6H8.33333C8.33333 4.89543 9.22876 4 10.3333 4H13C14.1046 4 15 4.89543 15 6ZM8.33333 12.6667C8.33333 12.2985 8.63181 12 9 12C9.36819 12 9.66667 12.2985 9.66667 12.6667V16C9.66667 16.3682 9.36819 16.6667 9 16.6667C8.63181 16.6667 8.33333 16.3682 8.33333 16V12.6667ZM11 12.6667C11 12.2985 11.2985 12 11.6667 12C12.0349 12 12.3333 12.2985 12.3333 12.6667V16C12.3333 16.3682 12.0349 16.6667 11.6667 16.6667C11.2985 16.6667 11 16.3682 11 16V12.6667ZM13.6667 12.6667C13.6667 12.2985 13.9651 12 14.3333 12C14.7015 12 15 12.2985 15 12.6667V16C15 16.3682 14.7015 16.6667 14.3333 16.6667C13.9651 16.6667 13.6667 16.3682 13.6667 16V12.6667ZM10.3333 5.33333C9.96514 5.33333 9.66667 5.6318 9.66667 5.99999H13.6667C13.6667 5.6318 13.3682 5.33333 13 5.33333H10.3333ZM6.33333 8.66666H17V7.99999C17 7.6318 16.7015 7.33333 16.3333 7.33333H7C6.63181 7.33333 6.33333 7.6318 6.33333 7.99999V8.66666Z" fill="#1A3C40"/>
</svg>
