<svg width="24" height="24" viewBox="0 0 24 24" fill="none" xmlns="http://www.w3.org/2000/svg">
<path fill-rule="evenodd" clip-rule="evenodd" d="M12.4375 9.29994L6.75 14.9874V17.25H9.01256L14.7001 11.5625L12.4375 9.29994ZM13.6749 8.0625L15.9375 10.3251L16.8876 9.375L14.625 7.11244L13.6749 8.0625ZM5.875 19C5.39175 19 5 18.6082 5 18.125V14.625C5 14.3929 5.09219 14.1704 5.25628 14.0063L14.0063 5.25628C14.348 4.91457 14.902 4.91457 15.2437 5.25628L18.7437 8.75628C19.0854 9.09799 19.0854 9.65201 18.7437 9.99372L9.99372 18.7437C9.82962 18.9078 9.60706 19 9.375 19H5.875Z" fill="#1A3C40"/>
</svg>
