<svg width="24" height="24" viewBox="0 0 24 24" fill="none" xmlns="http://www.w3.org/2000/svg">
<path fill-rule="evenodd" clip-rule="evenodd" d="M14.8907 13.4765L19.2071 17.7929C19.5976 18.1834 19.5976 18.8166 19.2071 19.2071C18.8166 19.5976 18.1834 19.5976 17.7929 19.2071L13.4765 14.8907C12.4957 15.5892 11.2958 16 10 16C6.68629 16 4 13.3137 4 10C4 6.68629 6.68629 4 10 4C13.3137 4 16 6.68629 16 10C16 11.2958 15.5892 12.4957 14.8907 13.4765V13.4765ZM14 10C14 7.79086 12.2091 6 10 6C7.79086 6 6 7.79086 6 10C6 12.2091 7.79086 14 10 14C12.2091 14 14 12.2091 14 10Z" fill="#1A3C40"/>
</svg>
