<svg width="158" height="149" viewBox="0 0 158 149" fill="none" xmlns="http://www.w3.org/2000/svg">
<path d="M70.5984 25.5163H87.4001L92.3374 50.827H65.6606L70.5984 25.5163Z" fill="#1A3C40"/>
<path d="M39.4995 44.2338C32.661 44.2338 28.2085 49.5023 27.156 55.8742L19.434 111.931H138.564L130.842 55.8742C129.79 49.5023 125.337 44.2338 118.499 44.2338H39.4995Z" fill="#1A3C40"/>
<path d="M17.2809 109.603H140.717C147.555 109.603 153.061 114.794 153.061 121.243V132.702C153.061 139.15 147.555 144.342 140.717 144.342H17.2809C10.4425 144.342 4.93744 139.15 4.93744 132.702V121.243C4.93744 114.794 10.4425 109.603 17.2809 109.603V109.603Z" fill="#417D7A"/>
<path d="M58.0151 4.65619H99.9833C103.403 4.65619 106.155 7.25193 106.155 10.4764V28.4675C106.155 31.6919 103.403 34.2881 99.9833 34.2881H58.0151C54.5959 34.2881 51.8429 31.6919 51.8429 28.4675V10.4764C51.8429 7.25193 54.5955 4.65619 58.0151 4.65619V4.65619Z" fill="#1A3C40"/>
<path d="M48.2945 63.6086H65.1909C68.6101 63.6086 71.3626 66.2043 71.3626 69.4288V85.3627C71.3626 88.5871 68.6101 91.1828 65.1909 91.1828H48.2945C44.8753 91.1828 42.1228 88.5871 42.1228 85.3627V69.4288C42.1228 66.2043 44.8753 63.6086 48.2945 63.6086V63.6086Z" fill="white"/>
<path d="M61.0345 109.603L62.0544 117.78C62.4556 120.983 64.8069 123.601 68.2261 123.601H89.7719C93.1911 123.601 95.5443 120.983 95.9441 117.78L96.9635 109.603H61.0345Z" fill="#1A3C40"/>
<path d="M96.7586 69.7319C96.7587 70.4866 96.601 71.2339 96.2948 71.9311C95.9886 72.6283 95.5397 73.2618 94.9738 73.7955C94.408 74.3291 93.7362 74.7524 92.9968 75.0412C92.2575 75.33 91.4651 75.4786 90.6648 75.4786C89.8646 75.4786 89.0721 75.33 88.3328 75.0412C87.5935 74.7524 86.9217 74.3291 86.3558 73.7955C85.7899 73.2618 85.3411 72.6283 85.0348 71.9311C84.7286 71.2339 84.571 70.4866 84.571 69.7319C84.5711 68.2078 85.2132 66.7462 86.356 65.6686C87.4988 64.591 89.0487 63.9856 90.6648 63.9856C92.2809 63.9856 93.8309 64.591 94.9737 65.6686C96.1165 66.7462 96.7585 68.2078 96.7586 69.7319V69.7319ZM96.7586 85.7828C96.7585 87.3069 96.1165 88.7685 94.9737 89.8461C93.8309 90.9237 92.2809 91.5291 90.6648 91.5291C89.0487 91.5291 87.4988 90.9237 86.356 89.8461C85.2132 88.7685 84.5711 87.3069 84.571 85.7828C84.571 85.0281 84.7286 84.2809 85.0348 83.5836C85.3411 82.8864 85.7899 82.2529 86.3558 81.7193C86.9217 81.1856 87.5935 80.7623 88.3328 80.4735C89.0721 80.1847 89.8646 80.0361 90.6648 80.0361C91.4651 80.0361 92.2575 80.1847 92.9968 80.4735C93.7362 80.7623 94.408 81.1856 94.9738 81.7193C95.5397 82.2529 95.9886 82.8864 96.2948 83.5836C96.601 84.2809 96.7587 85.0281 96.7586 85.7828V85.7828ZM116.615 69.7319C116.615 70.4866 116.458 71.2339 116.151 71.9311C115.845 72.6283 115.396 73.2618 114.83 73.7955C114.264 74.3291 113.593 74.7524 112.853 75.0412C112.114 75.33 111.322 75.4786 110.521 75.4786C108.905 75.4785 107.355 74.873 106.213 73.7953C105.07 72.7176 104.428 71.2559 104.428 69.7319C104.428 68.2079 105.07 66.7464 106.213 65.6688C107.355 64.5912 108.905 63.9857 110.521 63.9856C112.137 63.9856 113.687 64.591 114.83 65.6686C115.973 66.7462 116.615 68.2078 116.615 69.7319V69.7319ZM116.615 85.7828C116.615 87.3069 115.973 88.7685 114.83 89.8461C113.687 90.9237 112.137 91.5291 110.521 91.5291C108.905 91.529 107.355 90.9236 106.213 89.846C105.07 88.7683 104.428 87.3068 104.428 85.7828C104.428 84.2588 105.07 82.7971 106.213 81.7194C107.355 80.6417 108.905 80.0362 110.521 80.0361C111.322 80.0361 112.114 80.1847 112.853 80.4735C113.593 80.7623 114.264 81.1856 114.83 81.7193C115.396 82.2529 115.845 82.8864 116.151 83.5836C116.458 84.2809 116.615 85.0281 116.615 85.7828V85.7828Z" fill="white"/>
</svg>
